<svg xmlns="http://www.w3.org/2000/svg" width="14.614" height="14.608" viewBox="0 0 14.614 14.608"><path id="Path_1080" data-name="Path 1080" d="M320.769,548.922h0l1.731,3.652h5.128l2.016-3.652Zm9.379,8.035h-8.765a1.445,1.445,0,0,1-1.253-.713,1.461,1.461,0,0,1-.026-1.456L321.09,553l-2.629-5.545H317V546h2.388l.687,1.46h10.81a.728.728,0,0,1,.635,1.082l-2.615,4.74a1.456,1.456,0,0,1-1.278.752h-5.442l-.8,1.461h8.765v1.46Zm-8.765,3.645a1.454,1.454,0,1,1,1.461-1.453A1.458,1.458,0,0,1,321.383,560.6Zm7.3.007a1.461,1.461,0,1,1,1.461-1.461A1.462,1.462,0,0,1,328.687,560.608Z" transform="translate(-317 -546)" fill="#eba45c"></path></svg>