<svg xmlns="http://www.w3.org/2000/svg" width="11.073" height="11.073" viewBox="0 0 11.073 11.073"><path id="comment-text-multiple" d="M2.507,8.546H1.5V2.507A1.007,1.007,0,0,1,2.507,1.5h8.053V2.507H2.507v6.04m4.53,4.026a.5.5,0,0,1-.5-.5v-1.51H4.52A1.007,1.007,0,0,1,3.513,9.553V4.52A1.007,1.007,0,0,1,4.52,3.513h7.046A1.007,1.007,0,0,1,12.573,4.52V9.553a1.007,1.007,0,0,1-1.007,1.007H9.5L7.64,12.427a.527.527,0,0,1-.352.146H7.036M5.526,5.526V6.533h5.033V5.526H5.526m0,2.013V8.546H9.553V7.54Z" transform="translate(-1.5 -1.5)" fill="#eba45c"></path></svg>