<svg xmlns="http://www.w3.org/2000/svg" width="50" height="50" viewBox="0 0 50 50"><g id="Group_1662" data-name="Group 1662" transform="translate(-1235 -688)"><circle id="Ellipse_44" data-name="Ellipse 44" cx="25" cy="25" r="25" transform="translate(1235 688)" fill="#eba45c"></circle><path id="Path_1096" data-name="Path 1096" d="M1075.142,417.009a9.859,9.859,0,0,0-5.341,4.391h3.639A19.27,19.27,0,0,1,1075.142,417.009Zm3.195-.492a17.359,17.359,0,0,0-2.356,4.883h4.712a17.365,17.365,0,0,0-2.356-4.883Zm3.194.492a19.3,19.3,0,0,1,1.7,4.391h3.639A9.9,9.9,0,0,0,1081.531,417.009Zm-12.741,6.858a9.648,9.648,0,0,0,0,4.934h4.169a20.383,20.383,0,0,1-.173-2.467,20.689,20.689,0,0,1,.173-2.467Zm14.923,0h0a17.59,17.59,0,0,1,0,4.934h4.17a9.648,9.648,0,0,0,0-4.934Zm-8.263,0a17.617,17.617,0,0,0-.2,2.467,18.286,18.286,0,0,0,.2,2.467h5.772a18.138,18.138,0,0,0,.2-2.467,17.62,17.62,0,0,0-.2-2.467Zm-5.649,7.4a9.858,9.858,0,0,0,5.341,4.391,19.256,19.256,0,0,1-1.7-4.391Zm13.432,0a19.275,19.275,0,0,1-1.7,4.391,9.9,9.9,0,0,0,5.341-4.391Zm-7.252,0h0a17.363,17.363,0,0,0,2.356,4.883,17.37,17.37,0,0,0,2.356-4.883Zm2.344,7.4a12.334,12.334,0,1,1,12.334-12.334A12.348,12.348,0,0,1,1078.324,438.668Z" transform="translate(182.01 287)" fill="#fff"></path></g></svg>