<svg xmlns="http://www.w3.org/2000/svg" id="Group_1568" data-name="Group 1568" width="60.529" height="10.686" viewBox="0 0 60.529 10.686"><path id="Path_9" data-name="Path 9" d="M425.624,4412.587l3.476,2.1-.922-3.955,3.071-2.659-4.044-.342-1.58-3.729-1.58,3.729-4.044.342,3.071,2.659-.922,3.955Z" transform="translate(-420 -4404)" fill="#e29716"></path><path id="Path_259" data-name="Path 259" d="M425.624,4412.587l3.476,2.1-.922-3.955,3.071-2.659-4.044-.342-1.58-3.729-1.58,3.729-4.044.342,3.071,2.659-.922,3.955Z" transform="translate(-407.679 -4404)" fill="#e29716"></path><path id="Path_260" data-name="Path 260" d="M425.624,4412.587l3.476,2.1-.922-3.955,3.071-2.659-4.044-.342-1.58-3.729-1.58,3.729-4.044.342,3.071,2.659-.922,3.955Z" transform="translate(-395.359 -4404)" fill="#e29716"></path><path id="Path_261" data-name="Path 261" d="M425.624,4412.587l3.476,2.1-.922-3.955,3.071-2.659-4.044-.342-1.58-3.729-1.58,3.729-4.044.342,3.071,2.659-.922,3.955Z" transform="translate(-383.039 -4404)" fill="#e29716"></path><path id="Path_262" data-name="Path 262" d="M425.624,4412.587l3.476,2.1-.922-3.955,3.071-2.659-4.044-.342-1.58-3.729-1.58,3.729-4.044.342,3.071,2.659-.922,3.955Z" transform="translate(-370.719 -4404)" fill="#e29716"></path></svg>