<svg xmlns="http://www.w3.org/2000/svg" width="24.867" height="32.001" viewBox="0 0 24.867 32.001"><g id="Group_1651" data-name="Group 1651" transform="translate(-2538.066 54)"><g id="Group_1650" data-name="Group 1650" transform="translate(2538.066 -54)"><path id="Path_1280" data-name="Path 1280" d="M2560.674-44.625h-3.3v-2.5A6.886,6.886,0,0,0,2550.5-54a6.886,6.886,0,0,0-6.879,6.878v2.5h-3.3L2538.066-22h24.867Zm-14.966-2.5a4.8,4.8,0,0,1,4.792-4.791,4.8,4.8,0,0,1,4.792,4.791v2.5h-9.583Zm1.422,8.783a2.087,2.087,0,0,1,2.087,2.087,2.087,2.087,0,0,1-2.087,2.087,2.087,2.087,0,0,1-2.087-2.087A2.087,2.087,0,0,1,2547.13-38.339Zm-1.616,9.542,8.348-10.342,1.624,1.311-8.348,10.342Zm8.356,1.136a2.087,2.087,0,0,1-2.087-2.087,2.087,2.087,0,0,1,2.087-2.087,2.087,2.087,0,0,1,2.087,2.087A2.087,2.087,0,0,1,2553.869-27.661Z" transform="translate(-2538.066 54)" fill="#fff"></path></g></g></svg>