<svg xmlns="http://www.w3.org/2000/svg" width="59.446" height="59.446" viewBox="0 0 59.446 59.446"><g id="Group_893" data-name="Group 893" transform="translate(241.871 -239.91)"><path id="Path_1078" data-name="Path 1078" d="M15.481,0A15.481,15.481,0,1,1,0,15.481,15.481,15.481,0,0,1,15.481,0Z" transform="translate(-234.041 269.633) rotate(-45)" fill="#ffd8af"></path><g id="Group_892" data-name="Group 892" transform="translate(-241.871 239.91)"><path id="Path_984" data-name="Path 984" d="M-212.148,239.91a29.757,29.757,0,0,0-29.723,29.723,29.757,29.757,0,0,0,29.723,29.723,29.757,29.757,0,0,0,29.723-29.723A29.757,29.757,0,0,0-212.148,239.91Zm0,55.73a26.037,26.037,0,0,1-26.008-26.007,26.037,26.037,0,0,1,26.008-26.008,26.037,26.037,0,0,1,26.008,26.008A26.037,26.037,0,0,1-212.148,295.64Z" transform="translate(241.871 -239.91)" fill="#eba45c"></path><path id="Path_985" data-name="Path 985" d="M-187.911,286.073l-9.014-9.014a1.858,1.858,0,0,0-2.627,0h0a1.857,1.857,0,0,0,0,2.627l10.328,10.328a1.858,1.858,0,0,0,2.627,0l14.068-14.069a1.857,1.857,0,0,0,0-2.627h0a1.857,1.857,0,0,0-2.627,0Z" transform="translate(217.634 -258.977)" fill="#dca369"></path><path id="Path_986" data-name="Path 986" d="M-173.935,259.776a2.064,2.064,0,0,0,2.064-2.064,2.053,2.053,0,0,0-.356-1.159,2.061,2.061,0,0,0-1.716-.919,2.064,2.064,0,0,0-2.064,2.064,2.051,2.051,0,0,0,.356,1.159A2.061,2.061,0,0,0-173.935,259.776Z" transform="translate(203.658 -249.033)" fill="#dca369"></path><path id="Path_987" data-name="Path 987" d="M-173.943,355.95a2.064,2.064,0,0,0-2.064,2.064,2.064,2.064,0,0,0,2.064,2.064,2.064,2.064,0,0,0,2.064-2.064A2.064,2.064,0,0,0-173.943,355.95Z" transform="translate(203.658 -307.234)" fill="#dca369"></path><path id="Path_988" data-name="Path 988" d="M-224.1,305.793a2.064,2.064,0,0,0-2.064,2.064,2.064,2.064,0,0,0,2.064,2.064,2.064,2.064,0,0,0,2.064-2.064A2.064,2.064,0,0,0-224.1,305.793Z" transform="translate(232.759 -278.134)" fill="#dca369"></path><path id="Path_989" data-name="Path 989" d="M-123.786,305.793a2.064,2.064,0,0,0-2.064,2.064,2.064,2.064,0,0,0,2.064,2.064,2.064,2.064,0,0,0,2.064-2.064A2.064,2.064,0,0,0-123.786,305.793Z" transform="translate(174.558 -278.134)" fill="#dca369"></path></g></g></svg>