<svg xmlns="http://www.w3.org/2000/svg" width="50" height="50" viewBox="0 0 50 50"><g id="Group_1660" data-name="Group 1660" transform="translate(-635 -688)"><circle id="Ellipse_44" data-name="Ellipse 44" cx="25" cy="25" r="25" transform="translate(635 688)" fill="#eba45c"></circle><path id="Path_1097" data-name="Path 1097" d="M738.056,3306.29a3.234,3.234,0,1,1,3.234-3.234A3.238,3.238,0,0,1,738.056,3306.29Zm0-9.7a6.476,6.476,0,0,0-6.468,6.47c0,4.041,4.524,10.284,6.468,12.78,1.943-2.465,6.468-8.646,6.468-12.78A6.476,6.476,0,0,0,738.056,3296.587Zm0,23.286h0a59.137,59.137,0,0,1-4.526-5.86c-2.066-3.062-4.527-7.447-4.527-10.955a9.055,9.055,0,1,1,18.11,0c0,3.508-2.462,7.893-4.528,10.955a58.912,58.912,0,0,1-4.528,5.86Z" transform="translate(-78.055 -2593.934)" fill="#fff"></path></g></svg>