<svg xmlns="http://www.w3.org/2000/svg" width="50" height="50" viewBox="0 0 50 50"><g id="Group_1661" data-name="Group 1661" transform="translate(-935 -688)"><circle id="Ellipse_44" data-name="Ellipse 44" cx="25" cy="25" r="25" transform="translate(935 688)" fill="#eba45c"></circle><g id="Group_1616" data-name="Group 1616" transform="matrix(-0.995, 0.105, -0.105, -0.995, 974.336, 725.422)"><path id="Path_270" data-name="Path 270" d="M27.908,27.909H0V0H27.908Z" transform="translate(0 0)" fill="none"></path><path id="Path_271" data-name="Path 271" d="M2.047,6.644,5,6.982a2.315,2.315,0,0,0,1.907-.663l2.14-2.14a17.5,17.5,0,0,1,7.663,7.663l-2.151,2.151A2.315,2.315,0,0,0,13.9,15.9l.337,2.93a2.327,2.327,0,0,0,2.314,2.058h2.012a2.308,2.308,0,0,0,2.326-2.407A19.759,19.759,0,0,0,2.407,0,2.308,2.308,0,0,0,0,2.33V4.342A2.3,2.3,0,0,0,2.047,6.644Z" transform="translate(3.5 3.519)" fill="#fff"></path></g></g></svg>