<svg xmlns="http://www.w3.org/2000/svg" width="40.114" height="35.028" viewBox="0 0 40.114 35.028"><g id="Group_948" data-name="Group 948" transform="translate(-1728 -39.447)"><path id="Path_1079" data-name="Path 1079" d="M325.967,552.3h0l4.119,7.881h12.2l4.8-7.881Zm22.313,17.337H327.427a3.52,3.52,0,0,1-2.98-1.538,2.9,2.9,0,0,1-.061-3.143l2.346-3.846-6.256-11.964H317V546h5.683l1.634,3.151h25.719a1.755,1.755,0,0,1,1.493.779,1.424,1.424,0,0,1,.019,1.556l-6.221,10.229a3.536,3.536,0,0,1-3.041,1.623H329.338l-1.912,3.152H348.28v3.152Zm-20.854,7.865a3.153,3.153,0,1,1,3.476-3.137A3.322,3.322,0,0,1,327.427,577.507Zm17.378.016a3.167,3.167,0,1,1,3.476-3.152A3.329,3.329,0,0,1,344.8,577.522Z" transform="translate(1411 -503.048)" fill="#fff"></path><circle id="Ellipse_38" data-name="Ellipse 38" cx="6.5" cy="6.5" r="6.5" transform="translate(1755.114 39.447)" fill="#eba45c"></circle><text id="_1" data-name="1" transform="translate(1760.114 48.448)" fill="#fff" font-size="8" font-family="SegoeUI-Semibold, Segoe UI" font-weight="600"><tspan x="0" y="0">1</tspan></text></g></svg>